# xmcd CD database file
#
# Track frame offsets:
#	150
#	52506
#	86359
#	165427
#
# Disc length: 2837 seconds
#
# Revision: 1
# Processed by: cddbd v1.5.2PL0 Copyright (c) Steve Scherf et al.
# Submitted via: CDex 1.51
#
DISCID=1a0b1304
DTITLE=CREAM - Sun Vanishes(Detroit Michigan) CD 2
DYEAR=1967
DGENRE=Blues Rock
TTITLE0=Stepping Out
TTITLE1=Traintime
TTITLE2=Toad
TTITLE3=I'm So Glad
EXTD=YEAR: 1967
EXTT0=
EXTT1=
EXTT2=
EXTT3=
PLAYORDER=
